<svg xmlns="http://www.w3.org/2000/svg" xmlns:xlink="http://www.w3.org/1999/xlink" width="1000" zoomAndPan="magnify" viewBox="0 0 750 749.999995" height="1000" preserveAspectRatio="xMidYMid meet" version="1.0"><defs><g/><clipPath id="id1"><path d="M 192.75 339.664062 L 224.25 339.664062 L 224.25 366.664062 L 192.75 366.664062 Z M 192.75 339.664062 " clip-rule="nonzero"/></clipPath></defs><g fill="rgb(0%, 0%, 0%)" fill-opacity="1"><g transform="translate(70.014367, 411)"><g><path d="M 7 -70 L 26.796875 -70 L 26.796875 0 L 7 0 Z M 7 -70 "/></g></g></g><g fill="rgb(0%, 0%, 0%)" fill-opacity="1"><g transform="translate(113.413033, 411)"><g><path d="M 21.90625 -54.296875 L 0.40625 -54.296875 L 0.40625 -70 L 63.09375 -70 L 63.09375 -54.296875 L 41.703125 -54.296875 L 41.703125 0 L 21.90625 0 Z M 21.90625 -54.296875 "/></g></g></g><g fill="rgb(0%, 0%, 0%)" fill-opacity="1"><g transform="translate(225.009408, 411)"><g><path d="M 31.59375 1.40625 C 25.925781 1.40625 20.425781 0.707031 15.09375 -0.6875 C 9.757812 -2.09375 5.425781 -3.960938 2.09375 -6.296875 L 8.59375 -20.90625 C 11.726562 -18.832031 15.363281 -17.160156 19.5 -15.890625 C 23.632812 -14.628906 27.703125 -14 31.703125 -14 C 39.296875 -14 43.09375 -15.898438 43.09375 -19.703125 C 43.09375 -21.703125 42.007812 -23.179688 39.84375 -24.140625 C 37.675781 -25.109375 34.195312 -26.128906 29.40625 -27.203125 C 24.132812 -28.335938 19.734375 -29.550781 16.203125 -30.84375 C 12.671875 -32.144531 9.632812 -34.226562 7.09375 -37.09375 C 4.5625 -39.96875 3.296875 -43.835938 3.296875 -48.703125 C 3.296875 -52.960938 4.460938 -56.8125 6.796875 -60.25 C 9.128906 -63.6875 12.613281 -66.40625 17.25 -68.40625 C 21.882812 -70.40625 27.566406 -71.40625 34.296875 -71.40625 C 38.898438 -71.40625 43.429688 -70.882812 47.890625 -69.84375 C 52.359375 -68.8125 56.296875 -67.296875 59.703125 -65.296875 L 53.59375 -50.59375 C 46.925781 -54.195312 40.460938 -56 34.203125 -56 C 30.265625 -56 27.394531 -55.414062 25.59375 -54.25 C 23.800781 -53.082031 22.90625 -51.566406 22.90625 -49.703125 C 22.90625 -47.835938 23.96875 -46.4375 26.09375 -45.5 C 28.226562 -44.5625 31.664062 -43.59375 36.40625 -42.59375 C 41.738281 -41.46875 46.15625 -40.253906 49.65625 -38.953125 C 53.15625 -37.648438 56.1875 -35.582031 58.75 -32.75 C 61.3125 -29.914062 62.59375 -26.066406 62.59375 -21.203125 C 62.59375 -17.003906 61.425781 -13.203125 59.09375 -9.796875 C 56.757812 -6.398438 53.257812 -3.679688 48.59375 -1.640625 C 43.925781 0.390625 38.257812 1.40625 31.59375 1.40625 Z M 31.59375 1.40625 "/></g></g></g><g fill="rgb(12.548828%, 61.178589%, 52.549744%)" fill-opacity="1"><g transform="translate(299.19795, 411)"><g><path d="M 37.59375 -18.59375 L 26.796875 -18.59375 L 26.796875 0 L 7 0 L 7 -70 L 39 -70 C 45.332031 -70 50.832031 -68.945312 55.5 -66.84375 C 60.164062 -64.75 63.765625 -61.75 66.296875 -57.84375 C 68.828125 -53.945312 70.09375 -49.363281 70.09375 -44.09375 C 70.09375 -39.03125 68.910156 -34.613281 66.546875 -30.84375 C 64.179688 -27.082031 60.800781 -24.132812 56.40625 -22 L 71.5 0 L 50.296875 0 Z M 50.09375 -44.09375 C 50.09375 -47.363281 49.0625 -49.898438 47 -51.703125 C 44.9375 -53.503906 41.867188 -54.40625 37.796875 -54.40625 L 26.796875 -54.40625 L 26.796875 -33.90625 L 37.796875 -33.90625 C 41.867188 -33.90625 44.9375 -34.785156 47 -36.546875 C 49.0625 -38.316406 50.09375 -40.832031 50.09375 -44.09375 Z M 50.09375 -44.09375 "/></g></g></g><g fill="rgb(12.548828%, 61.178589%, 52.549744%)" fill-opacity="1"><g transform="translate(382.695075, 411)"><g><path d="M 53.90625 -13.59375 L 24.296875 -13.59375 L 18.796875 0 L -1.40625 0 L 29.5 -70 L 49 -70 L 80 0 L 59.40625 0 Z M 48.09375 -28.203125 L 39.09375 -50.59375 L 30.09375 -28.203125 Z M 48.09375 -28.203125 "/></g></g></g><g fill="rgb(12.548828%, 61.178589%, 52.549744%)" fill-opacity="1"><g transform="translate(470.792016, 411)"><g><path d="M 39 -70 C 45.332031 -70 50.832031 -68.945312 55.5 -66.84375 C 60.164062 -64.75 63.765625 -61.75 66.296875 -57.84375 C 68.828125 -53.945312 70.09375 -49.363281 70.09375 -44.09375 C 70.09375 -38.832031 68.828125 -34.265625 66.296875 -30.390625 C 63.765625 -26.523438 60.164062 -23.539062 55.5 -21.4375 C 50.832031 -19.34375 45.332031 -18.296875 39 -18.296875 L 26.796875 -18.296875 L 26.796875 0 L 7 0 L 7 -70 Z M 37.796875 -33.90625 C 41.867188 -33.90625 44.9375 -34.785156 47 -36.546875 C 49.0625 -38.316406 50.09375 -40.832031 50.09375 -44.09375 C 50.09375 -47.363281 49.0625 -49.898438 47 -51.703125 C 44.9375 -53.503906 41.867188 -54.40625 37.796875 -54.40625 L 26.796875 -54.40625 L 26.796875 -33.90625 Z M 37.796875 -33.90625 "/></g></g></g><g fill="rgb(12.548828%, 61.178589%, 52.549744%)" fill-opacity="1"><g transform="translate(553.989152, 411)"><g><path d="M 7 -70 L 26.796875 -70 L 26.796875 0 L 7 0 Z M 7 -70 "/></g></g></g><g fill="rgb(12.548828%, 61.178589%, 52.549744%)" fill-opacity="1"><g transform="translate(597.387824, 411)"><g><path d="M 7 -70 L 40.09375 -70 C 47.757812 -70 54.5625 -68.566406 60.5 -65.703125 C 66.4375 -62.835938 71.035156 -58.769531 74.296875 -53.5 C 77.566406 -48.226562 79.203125 -42.0625 79.203125 -35 C 79.203125 -27.9375 77.566406 -21.769531 74.296875 -16.5 C 71.035156 -11.226562 66.4375 -7.160156 60.5 -4.296875 C 54.5625 -1.429688 47.757812 0 40.09375 0 L 7 0 Z M 39.296875 -15.796875 C 45.296875 -15.796875 50.113281 -17.492188 53.75 -20.890625 C 57.382812 -24.296875 59.203125 -29 59.203125 -35 C 59.203125 -41 57.382812 -45.695312 53.75 -49.09375 C 50.113281 -52.5 45.296875 -54.203125 39.296875 -54.203125 L 26.796875 -54.203125 L 26.796875 -15.796875 Z M 39.296875 -15.796875 "/></g></g></g><g clip-path="url(#id1)"><path fill="rgb(12.548828%, 61.178589%, 52.549744%)" d="M 224.25 339.667969 L 208.5 366.660156 L 192.75 339.667969 Z M 224.25 339.667969 " fill-opacity="1" fill-rule="nonzero"/></g></svg>